<svg width="256" height="256" viewBox="0 0 256 256" fill="none" xmlns="http://www.w3.org/2000/svg">
  <rect width="256" height="256" rx="48" fill="white"/>
  <path d="M128 36L205 66V120C205 171 169 206 128 220C87 206 51 171 51 120V66L128 36Z" fill="#0F4C81"/>
  <path d="M128 45L197 73V118C197 163 167 195 128 208C89 195 59 163 59 118V73L128 45Z" fill="#2BB9B3" opacity="0.2"/>
  <path d="M73 129L126 76L152 101L183 69L194 80L152 123L126 97L84 139L73 129Z" fill="#62C7C1"/>
  <path d="M73 129L126 76L152 101L183 69" stroke="#0F4C81" stroke-width="10" stroke-linecap="round" stroke-linejoin="round"/>
  <path d="M104 135H130V187H104V135Z" fill="#0F4C81"/>
  <path d="M111 121H146V134H111V121Z" fill="#2BB9B3"/>
  <path d="M93 134H109V187H93V134Z" fill="#0F4C81"/>
  <circle cx="128" cy="115" r="16" fill="#2BB9B3"/>
  <path d="M118 115C118 109.477 122.477 105 128 105C133.523 105 138 109.477 138 115V117H118V115Z" fill="#BCEBE7"/>
  <path d="M116 159H140" stroke="#BCEBE7" stroke-width="8" stroke-linecap="round"/>
  <path d="M116 171H140" stroke="#BCEBE7" stroke-width="8" stroke-linecap="round"/>
  <path d="M116 183H140" stroke="#BCEBE7" stroke-width="8" stroke-linecap="round"/>
</svg>